<?xml version="1.0" encoding="utf-8"?>
<!-- Generator: Adobe Illustrator 19.2.1, SVG Export Plug-In . SVG Version: 6.00 Build 0)  -->
<svg version="1.1" id="Layer_1" xmlns="http://www.w3.org/2000/svg" xmlns:xlink="http://www.w3.org/1999/xlink" x="0px" y="0px"
	 viewBox="0 0 12.6 16" style="enable-background:new 0 0 12.6 16;" xml:space="preserve">
<style type="text/css">
	.st0{fill:#6F921B;}
</style>
<path class="st0" d="M8.1,3c0.8,0,1.5-0.7,1.5-1.5C9.6,0.7,8.9,0,8.1,0C7.3,0,6.6,0.7,6.6,1.5C6.6,2.3,7.3,3,8.1,3z M5.3,13.3L6,10
	l1.6,1.5V16h1.7v-5.6L7.6,8.8L8,6.6c1,1.1,2.9,1.9,4.6,1.9V7c-1.4,0-3.1-0.8-3.7-1.8L8.2,3.9C7.9,3.5,7.4,3.3,6.9,3.3
	c-0.2,0-0.4,0.1-0.6,0.1L2.3,4.9V9h1.5V5.9l1.4-0.5L4,11.3l-3.6-0.7L0,12.2L5.3,13.3z"/>
</svg>
