<?xml version="1.0" encoding="utf-8"?>
<!-- Generator: Adobe Illustrator 19.2.1, SVG Export Plug-In . SVG Version: 6.00 Build 0)  -->
<svg version="1.1" id="Layer_1" xmlns="http://www.w3.org/2000/svg" xmlns:xlink="http://www.w3.org/1999/xlink" x="0px" y="0px"
	 viewBox="0 0 16 16" style="enable-background:new 0 0 16 16;" xml:space="preserve">
<style type="text/css">
	.st0{fill:#E23C30;}
</style>
<path class="st0" d="M8,0C3.6,0,0,3.6,0,8s3.6,8,8,8c4.4,0,8-3.6,8-8S12.4,0,8,0z M1.6,8c0-3.5,2.9-6.4,6.4-6.4
	c1.5,0,2.8,0.5,3.9,1.4l-9,9C2.1,10.8,1.6,9.5,1.6,8z M8,14.4c-1.5,0-2.8-0.5-3.9-1.4l9-9c0.8,1.1,1.4,2.4,1.4,3.9
	C14.4,11.5,11.5,14.4,8,14.4z"/>
</svg>
