<?xml version="1.0" encoding="utf-8"?>
<!-- Generator: Adobe Illustrator 19.2.1, SVG Export Plug-In . SVG Version: 6.00 Build 0)  -->
<svg version="1.1" id="Layer_1" xmlns="http://www.w3.org/2000/svg" xmlns:xlink="http://www.w3.org/1999/xlink" x="0px" y="0px"
	 viewBox="0 0 16 16" style="enable-background:new 0 0 16 16;" xml:space="preserve">
<style type="text/css">
	.st0{fill:#666666;}
</style>
<path class="st0" d="M16,6h-5.7l2.2-2.3C10,1.3,6.1,1.2,3.6,3.6c-2.4,2.4-2.4,6.3,0,8.8s6.4,2.4,8.8,0c1.2-1.2,1.8-2.6,1.8-4.4H16
	c0,1.8-0.8,4.1-2.3,5.6c-3.1,3.1-8.2,3.1-11.3,0c-3.1-3.1-3.1-8.2,0-11.3c3.1-3.1,8.2-3,11.3,0.1L16,0V6z M8.9,4v4.1l2.5,2l-1.1,1.4
	L7,8.8V4H8.9z"/>
</svg>
